<svg version="1.1" viewBox="0.0 0.0 514.0603674540682 522.0682414698163" fill="none" stroke="none" stroke-linecap="square" stroke-miterlimit="10" xmlns:xlink="http://www.w3.org/1999/xlink" xmlns="http://www.w3.org/2000/svg"><clipPath id="p.0"><path d="m0 0l514.06036 0l0 522.06824l-514.06036 0l0 -522.06824z" clip-rule="nonzero"/></clipPath><g clip-path="url(#p.0)"><path fill="#000000" fill-opacity="0.0" d="m0 0l514.06036 0l0 522.06824l-514.06036 0z" fill-rule="evenodd"/><path fill="#404b69" d="m4.455811 258.949l0 0c0 -139.79327 111.61858 -253.1181 249.30708 -253.1181l0 0c66.120346 0 129.53258 26.667725 176.28673 74.13658c46.75415 47.46885 73.020355 111.85043 73.020355 178.98152l0 0c0 139.79327 -111.61859 253.11813 -249.30708 253.11813l0 0c-137.6885 0 -249.30708 -113.32486 -249.30708 -253.11813z" fill-rule="evenodd"/><path fill="#000000" fill-opacity="0.0" d="m42.30491 -2.86379l454.89764 0l0 729.95276l-454.89764 0z" fill-rule="evenodd"/><path fill="#ffffff" d="m184.89825 390.1362l0 -286.32812l35.15625 0l0 102.73438q24.609375 -28.515625 62.109375 -28.515625q23.046875 0 40.03125 9.078125q17.0 9.078125 24.3125 25.09375q7.328125 16.015625 7.328125 46.48436l0 131.45312l-35.15625 0l0 -131.45312q0 -26.35936 -11.421875 -38.374985q-11.421875 -12.015625 -32.328125 -12.015625q-15.625 0 -29.390625 8.109375q-13.765625 8.109375 -19.625 21.984375q-5.859375 13.859375 -5.859375 38.26561l0 113.484375l-35.15625 0z" fill-rule="nonzero"/><path fill="#000000" fill-opacity="0.0" d="m26.304907 -18.86379l454.89764 0l0 729.95276l-454.89764 0z" fill-rule="evenodd"/><path fill="#da0463" d="m168.89825 374.1362l0 -286.32812l35.15625 0l0 102.73438q24.609375 -28.515625 62.109375 -28.515625q23.046875 0 40.03125 9.078125q17.0 9.078125 24.3125 25.09375q7.328125 16.015625 7.328125 46.484375l0 131.45311l-35.15625 0l0 -131.45311q0 -26.359375 -11.421875 -38.375q-11.421875 -12.015625 -32.328125 -12.015625q-15.625 0 -29.390625 8.109375q-13.765625 8.109375 -19.625 21.984375q-5.859375 13.859375 -5.859375 38.26561l0 113.484375l-35.15625 0z" fill-rule="nonzero"/></g></svg>